<svg xmlns="http://www.w3.org/2000/svg" viewBox="0 0 640 960" role="img" aria-label="Happy Floor app preview">
  <defs>
    <clipPath id="phone">
      <rect x="30" y="18" width="580" height="924" rx="68" />
    </clipPath>
    <linearGradient id="blueCard" x1="44" y1="248" x2="596" y2="392" gradientUnits="userSpaceOnUse">
      <stop stop-color="#5f91e8" />
      <stop offset="0.48" stop-color="#73d495" />
      <stop offset="0.74" stop-color="#f2c043" />
      <stop offset="1" stop-color="#ed6261" />
    </linearGradient>
  </defs>
  <rect width="640" height="960" fill="#262626" rx="82" />
  <rect x="15" y="6" width="610" height="948" fill="#3a3a3a" rx="84" />
  <g clip-path="url(#phone)">
    <rect x="30" y="18" width="580" height="924" fill="#f7f5f1" />
    <path d="M160 20h320v38c0 28-22 50-50 50H210c-28 0-50-22-50-50V20Z" fill="#272727" />
    <rect x="277" y="46" width="86" height="11" fill="#777" rx="6" />
    <text x="320" y="162" text-anchor="middle" font-family="Georgia, serif" font-size="33" font-weight="700" fill="#111">happy floor</text>
    <text x="70" y="245" font-family="Arial, sans-serif" font-size="42" font-weight="800" font-style="italic" fill="#2b2b2b">Evening,</text>
    <text x="496" y="148" font-family="Arial, sans-serif" font-size="19" fill="#111">Daily Goal</text>
    <circle cx="584" cy="142" r="6" fill="none" stroke="#111" stroke-width="2" />
    <text x="568" y="184" text-anchor="middle" font-family="Arial, sans-serif" font-size="31" fill="#111">1/3</text>
    <rect x="70" y="292" width="500" height="142" fill="url(#blueCard)" rx="10" />
    <circle cx="122" cy="363" r="33" fill="#4274c2" opacity="0.7" />
    <path d="M113 346v34l29-17Z" fill="#fff" />
    <text x="174" y="365" font-family="Arial, sans-serif" font-size="32" font-weight="800" fill="#fff">Daily Squeeze</text>
    <text x="174" y="390" font-family="Arial, sans-serif" font-size="19" fill="#fff">A unique exercise everyday</text>
    <path d="M430 292c-14 40-35 75-61 104 37 12 75 1 109-31l45-73Z" fill="#f3bf3d" />
    <path d="M336 292c25 47 54 78 86 91 19-29 28-60 27-91Z" fill="#78cf91" />
    <path d="M452 292h92l-30 55Z" fill="#e95f5e" />
    <path d="M444 334c-3 22-25 31-43 17" fill="none" stroke="#1d1d1d" stroke-width="6" stroke-linecap="round" />
    <path d="M524 328c1 30-27 44-43 24" fill="none" stroke="#1d1d1d" stroke-width="6" stroke-linecap="round" />
    <path d="M562 295c-25 18-18 31 2 43s27 27 6 49" fill="none" stroke="#1d1d1d" stroke-width="6" stroke-linecap="round" />
    <path d="M583 294c-25 18-18 31 2 43s27 27 6 49" fill="none" stroke="#1d1d1d" stroke-width="6" stroke-linecap="round" />
    <rect x="70" y="458" width="500" height="106" fill="#eb6260" rx="10" />
    <circle cx="122" cy="511" r="30" fill="#b34847" opacity="0.65" />
    <path d="M103 523h36M108 519l12-19 12 9 14-21" fill="none" stroke="#fff" stroke-width="4" stroke-linecap="round" stroke-linejoin="round" />
    <text x="174" y="512" font-family="Arial, sans-serif" font-size="32" font-weight="800" fill="#fff">Progression Plan</text>
    <text x="174" y="538" font-family="Arial, sans-serif" font-size="19" fill="#fff">Build your confidence step-by-step</text>
    <path d="M536 497l13 14-13 14" fill="none" stroke="#fff" stroke-width="4" stroke-linecap="round" />
    <line x1="70" y1="610" x2="570" y2="610" stroke="#dedbd6" />
    <circle cx="100" cy="656" r="29" fill="#f5be37" />
    <path d="M91 665h18M96 665c-3-8 1-15 4-18 3 3 7 10 4 18" fill="none" stroke="#fff" stroke-width="4" stroke-linecap="round" />
    <text x="153" y="665" font-family="Arial, sans-serif" font-size="27" fill="#333">Next Reminder</text>
    <text x="520" y="649" text-anchor="end" font-family="Arial, sans-serif" font-size="24" fill="#5f91e8">Tomorrow at</text>
    <text x="520" y="681" text-anchor="end" font-family="Arial, sans-serif" font-size="24" fill="#5f91e8">09:00</text>
    <text x="70" y="760" font-family="Arial, sans-serif" font-size="42" font-weight="800" fill="#2b2b2b">Your Recents</text>
    <rect x="70" y="812" width="100" height="100" rx="18" fill="#59b271" />
    <circle cx="119" cy="836" r="18" fill="#a8dfb3" />
    <path d="M98 882c8-30 38-30 46 0" fill="#3d9157" />
    <text x="198" y="838" font-family="Arial, sans-serif" font-size="28" fill="#333">Beginners 1</text>
    <text x="198" y="872" font-family="Arial, sans-serif" font-size="21" fill="#909090">The simplest exercise</text>
    <rect x="472" y="812" width="96" height="96" rx="18" fill="#75c783" />
    <rect x="30" y="855" width="580" height="87" fill="#fafafa" opacity="0.94" />
  </g>
</svg>
